<svg id="fa-icon-nw0fzq7t2isgzjqxo2j8v5" class="svg-inline--fa fa-circle-pause" style="color: rgb(255, 99, 17); font-size: 18px; cursor: default;" aria-hidden="true" focusable="false" data-prefix="fas" data-icon="circle-pause" role="img" xmlns="http://www.w3.org/2000/svg" viewBox="0 0 512 512" data-fa-i2svg=""><path fill="currentColor" d="M256 512A256 256 0 1 0 256 0a256 256 0 1 0 0 512zM224 192V320c0 17.7-14.3 32-32 32s-32-14.3-32-32V192c0-17.7 14.3-32 32-32s32 14.3 32 32zm128 0V320c0 17.7-14.3 32-32 32s-32-14.3-32-32V192c0-17.7 14.3-32 32-32s32 14.3 32 32z"/></svg>